<?xml version="1.0" encoding="UTF-8" standalone="no"?>
<!-- Created with Inkscape (http://www.inkscape.org/) -->

<svg
   xmlns:dc="http://purl.org/dc/elements/1.1/"
   xmlns:cc="http://creativecommons.org/ns#"
   xmlns:rdf="http://www.w3.org/1999/02/22-rdf-syntax-ns#"
   xmlns:svg="http://www.w3.org/2000/svg"
   xmlns="http://www.w3.org/2000/svg"
   xmlns:sodipodi="http://sodipodi.sourceforge.net/DTD/sodipodi-0.dtd"
   xmlns:inkscape="http://www.inkscape.org/namespaces/inkscape"
   width="744.09448819"
   height="1052.3622047"
   id="svg3717"
   version="1.1"
   inkscape:version="0.47 r22583"
   sodipodi:docname="LadyStanding.svg">
  <defs
     id="defs3719">
    <inkscape:perspective
       sodipodi:type="inkscape:persp3d"
       inkscape:vp_x="0 : 526.18109 : 1"
       inkscape:vp_y="0 : 1000 : 0"
       inkscape:vp_z="744.09448 : 526.18109 : 1"
       inkscape:persp3d-origin="372.04724 : 350.78739 : 1"
       id="perspective3725" />
    <inkscape:perspective
       id="perspective3711"
       inkscape:persp3d-origin="0.5 : 0.33333333 : 1"
       inkscape:vp_z="1 : 0.5 : 1"
       inkscape:vp_y="0 : 1000 : 0"
       inkscape:vp_x="0 : 0.5 : 1"
       sodipodi:type="inkscape:persp3d" />
  </defs>
  <sodipodi:namedview
     id="base"
     pagecolor="#ffffff"
     bordercolor="#666666"
     borderopacity="1.0"
     inkscape:pageopacity="0.0"
     inkscape:pageshadow="2"
     inkscape:zoom="0.58"
     inkscape:cx="375"
     inkscape:cy="535.89999"
     inkscape:document-units="px"
     inkscape:current-layer="layer1"
     showgrid="false"
     inkscape:window-width="1440"
     inkscape:window-height="848"
     inkscape:window-x="-32000"
     inkscape:window-y="-32000"
     inkscape:window-maximized="1" />
  <metadata
     id="metadata3722">
    <rdf:RDF>
      <cc:Work
         rdf:about="">
        <dc:format>image/svg+xml</dc:format>
        <dc:type
           rdf:resource="http://purl.org/dc/dcmitype/StillImage" />
        <dc:title />
      </cc:Work>
    </rdf:RDF>
  </metadata>
  <g
     inkscape:label="Layer 1"
     inkscape:groupmode="layer"
     id="layer1">
    <path
       sodipodi:nodetypes="ccccccccccccccccccccccccccccc"
       id="path3590"
       d="m 217.21924,977.99927 69.32953,13.4203 69.86515,-152.68613 26.69708,-150.01728 c 7.13776,8.74547 53.86726,-3.19871 56.63096,5.54676 l 17.1199,140.17541 30.64319,157.68649 73.86578,-0.40896 -36.15211,-154.49258 -24.45579,-145.91801 65.66718,-1.31302 -87.66593,-253.50381 9.44101,-102.62455 101.49423,-118.62644 69.0351,-102.07065 -23.6587,-40.360437 -63.11108,89.203377 -92.44981,98.01251 -158.60971,6.1119 -97.2118,99.61603 -146.659441,19.50261 16.412327,45.15456 139.979174,-17.85483 79.61609,-69.09826 15.94909,98.45215 -98.6616,239.48983 80.8475,4.38107 -28.43939,149.03957 -65.51793,143.18239 z"
       style="fill:#000000;fill-opacity:1;stroke:#000000;stroke-width:2.56995702px;stroke-linecap:butt;stroke-linejoin:miter;stroke-opacity:1" />
    <path
       transform="matrix(2.1509129,0,0,2.0893094,-109.48968,39.673543)"
       d="m 263.13379,59.679256 a 32.036228,41.069122 0 1 1 -64.07245,0 32.036228,41.069122 0 1 1 64.07245,0 z"
       sodipodi:ry="41.069122"
       sodipodi:rx="32.036228"
       sodipodi:cy="59.679256"
       sodipodi:cx="231.09756"
       id="path3592"
       style="fill:#000000;fill-opacity:1"
       sodipodi:type="arc" />
  </g>
</svg>
